<svg xmlns:xlink="http://www.w3.org/1999/xlink" viewBox="0 0 32 32" fill="none" xmlns="http://www.w3.org/2000/svg" aria-label="LinkedIn" class="h-8" width="32"  height="32" ><g clip-path="url(#linkedin-circle-white_svg__clip0_1694_78301)" fill="none"><path fill-rule="evenodd" clip-rule="evenodd" d="M16 0C7.163 0 0 7.163 0 16s7.163 16 16 16 16-7.163 16-16S24.837 0 16 0zM9.496 11.765c1.264 0 2.052-.837 2.052-1.883C11.524 8.814 10.76 8 9.52 8 8.28 8 7.47 8.814 7.47 9.882c0 1.046.787 1.883 2.004 1.883h.023zm1.813 12.381V13.252H7.683v10.894h3.626zm13.078-6.245v6.247h-3.626v-5.829c0-1.464-.524-2.463-1.837-2.463-1.002 0-1.598.674-1.86 1.324-.096.233-.12.558-.12.884v6.084h-3.626s.048-9.872 0-10.894h3.626v1.543c.481-.742 1.343-1.8 3.268-1.8 2.386 0 4.175 1.558 4.175 4.904z" fill="#F6F6F6"></path></g><defs><clipPath id="linkedin-circle-white_svg__clip0_1694_78301"><path fill="#fff" d="M0 0h32v32H0z"></path></clipPath></defs></svg>