<svg xmlns:xlink="http://www.w3.org/1999/xlink" viewBox="0 0 32 32" fill="none" xmlns="http://www.w3.org/2000/svg" aria-label="Twitter" class="h-8" width="32"  height="32" ><g clip-path="url(#twitter-circle-white_svg__clip0_1694_78302)" fill="none"><path fill-rule="evenodd" clip-rule="evenodd" d="M16 0C7.163 0 0 7.163 0 16s7.163 16 16 16 16-7.163 16-16S24.837 0 16 0zm.888 13.292l-.034-.554c-.1-1.435.784-2.745 2.183-3.254.514-.18 1.387-.203 1.958-.045.224.068.65.294.951.497l.549.373.604-.192c.336-.102.784-.271.985-.384.19-.102.358-.158.358-.124 0 .192-.414.847-.76 1.209-.471.508-.337.553.615.214.57-.192.582-.192.47.023-.067.113-.414.508-.784.87-.627.621-.66.689-.66 1.209 0 .802-.38 2.474-.761 3.39-.705 1.717-2.216 3.49-3.727 4.383-2.126 1.254-4.958 1.57-7.342.836-.794-.248-2.16-.88-2.16-.994 0-.034.414-.079.918-.09a6.3 6.3 0 003-.836l.604-.362-.694-.237c-.985-.34-1.87-1.119-2.093-1.853-.067-.237-.045-.249.582-.249l.65-.011-.55-.26c-.648-.328-1.242-.881-1.533-1.446-.212-.407-.48-1.435-.402-1.514.022-.034.257.034.526.124.772.283.873.215.425-.26-.84-.859-1.097-2.135-.694-3.344l.19-.543.739.735c1.51 1.48 3.29 2.361 5.327 2.621l.56.068z" fill="#F6F6F6"></path></g><defs><clipPath id="twitter-circle-white_svg__clip0_1694_78302"><path fill="#fff" d="M0 0h32v32H0z"></path></clipPath></defs></svg>