<svg xmlns:xlink="http://www.w3.org/1999/xlink" viewBox="0 0 32 32" fill="none" xmlns="http://www.w3.org/2000/svg" aria-label="YouTube" class="h-8" width="32"  height="32" ><g clip-path="url(#youtube-circle-white_svg__clip0_1694_78351)" fill-rule="evenodd" clip-rule="evenodd" fill="#F6F6F6"><path d="M16 0C7.163 0 0 7.163 0 16s7.163 16 16 16 16-7.163 16-16S24.837 0 16 0zm6.668 10.5a2.167 2.167 0 011.509 1.549c.357 1.366.357 4.218.357 4.218s0 2.85-.357 4.218a2.167 2.167 0 01-1.51 1.549C21.338 22.4 16 22.4 16 22.4s-5.337 0-6.668-.366a2.167 2.167 0 01-1.509-1.55c-.356-1.366-.356-4.217-.356-4.217s0-2.852.356-4.218a2.167 2.167 0 011.51-1.55c1.33-.366 6.667-.366 6.667-.366s5.337 0 6.668.367z" fill="#F6F6F6"></path><path d="M14.4 19.2v-5.333l4.267 2.666L14.4 19.2z" fill="#F6F6F6"></path></g><defs><clipPath id="youtube-circle-white_svg__clip0_1694_78351"><path fill="#fff" d="M0 0h32v32H0z"></path></clipPath></defs></svg>