<svg xmlns:xlink="http://www.w3.org/1999/xlink" viewBox="0 0 32 32" fill="none" xmlns="http://www.w3.org/2000/svg" aria-label="Instagram" class="h-8" width="32"  height="32" ><g clip-path="url(#instagram-circle-white_svg__clip0_1694_78328)" fill-rule="evenodd" clip-rule="evenodd" fill="#F6F6F6"><path d="M16 0C7.163 0 0 7.163 0 16s7.163 16 16 16 16-7.163 16-16S24.837 0 16 0zm-3.518 7.518c.91-.041 1.201-.051 3.519-.051h-.003c2.318 0 2.608.01 3.518.051.909.042 1.53.186 2.073.397a4.17 4.17 0 011.511.984c.475.474.767.95.985 1.511.21.543.354 1.163.397 2.072.04.91.051 1.2.051 3.518 0 2.318-.01 2.608-.051 3.518-.043.908-.187 1.528-.397 2.071a4.187 4.187 0 01-.985 1.512c-.474.474-.95.767-1.51.985-.543.21-1.164.354-2.072.396-.91.041-1.2.052-3.518.052-2.318 0-2.608-.01-3.518-.052-.909-.042-1.53-.185-2.072-.396a4.179 4.179 0 01-1.511-.985 4.181 4.181 0 01-.984-1.512c-.211-.543-.355-1.163-.397-2.071-.041-.91-.051-1.2-.051-3.518 0-2.317.01-2.608.051-3.519.04-.908.185-1.528.396-2.07.22-.562.51-1.038.985-1.512.475-.475.95-.766 1.512-.984.543-.211 1.163-.355 2.071-.397z" fill="#F6F6F6"></path><path d="M15.236 9.004H16c2.278 0 2.548.009 3.448.05.832.038 1.284.177 1.585.293.398.155.682.34.98.639.299.298.484.583.639.981.117.3.256.752.294 1.584.04.9.05 1.17.05 3.447 0 2.278-.01 2.548-.05 3.447-.038.832-.177 1.284-.294 1.584-.155.398-.34.682-.639.98a2.64 2.64 0 01-.98.639c-.3.117-.753.256-1.585.294-.9.04-1.17.05-3.448.05-2.279 0-2.549-.01-3.448-.05-.832-.039-1.284-.178-1.585-.294a2.643 2.643 0 01-.981-.639 2.645 2.645 0 01-.639-.98c-.116-.3-.256-.752-.294-1.584-.04-.9-.049-1.17-.049-3.449s.009-2.548.05-3.447c.037-.832.177-1.284.293-1.585.155-.398.34-.682.639-.98.299-.3.583-.484.981-.64.301-.117.753-.255 1.585-.294.787-.035 1.092-.046 2.682-.048v.002zm5.32 1.417a1.024 1.024 0 100 2.049 1.024 1.024 0 000-2.049zm-8.937 5.58a4.382 4.382 0 118.765 0 4.382 4.382 0 01-8.765 0z" fill="#F6F6F6"></path><path d="M16 13.156a2.844 2.844 0 110 5.689 2.844 2.844 0 010-5.69z" fill="#F6F6F6"></path></g><defs><clipPath id="instagram-circle-white_svg__clip0_1694_78328"><path fill="#fff" d="M0 0h32v32H0z"></path></clipPath></defs></svg>